<?xml version="1.0" encoding="UTF-8"?>
<!DOCTYPE svg PUBLIC "-//W3C//DTD SVG 1.1//EN" "http://www.w3.org/Graphics/SVG/1.1/DTD/svg11.dtd">
<svg xmlns="http://www.w3.org/2000/svg" version="1.1" width="2000px" height="555px" style="shape-rendering:geometricPrecision; text-rendering:geometricPrecision; image-rendering:optimizeQuality; fill-rule:evenodd; clip-rule:evenodd" xmlns:xlink="http://www.w3.org/1999/xlink">
<g><path style="opacity:0.989" fill="#fe9f2e" d="M 105.5,-0.5 C 109.833,-0.5 114.167,-0.5 118.5,-0.5C 122.713,4.22475 123.547,9.55808 121,15.5C 110.131,31.227 98.2972,46.227 85.5,60.5C 92.152,67.6523 98.9853,74.6523 106,81.5C 117.103,72.0404 128.936,63.707 141.5,56.5C 142.492,64.3159 142.826,72.3159 142.5,80.5C 114.394,100.106 91.2278,124.439 73,153.5C 67.1999,164.102 61.6999,174.769 56.5,185.5C 56.6666,171.163 56.4999,156.829 56,142.5C 55.6174,143.056 55.1174,143.389 54.5,143.5C 64.1916,126.459 75.8582,110.793 89.5,96.5C 83.1667,89.5 76.5,82.8333 69.5,76.5C 64.7757,81.2294 59.7757,85.5627 54.5,89.5C 56.5518,80.0194 57.0518,70.3527 56,60.5C 54.549,62.4641 52.7157,63.7974 50.5,64.5C 71.4026,44.937 89.736,23.2703 105.5,-0.5 Z"/></g>
<g><path style="opacity:0.982" fill="#fe922f" d="M 327.5,27.5 C 327.5,34.5 327.5,41.5 327.5,48.5C 326.5,48.5 325.5,48.5 324.5,48.5C 297.349,42.3539 270.016,41.0205 242.5,44.5C 242.5,37.1667 242.5,29.8333 242.5,22.5C 271.14,19.3109 299.473,20.9776 327.5,27.5 Z"/></g>
<g><path style="opacity:0.98" fill="#fe982f" d="M 242.5,22.5 C 242.5,29.8333 242.5,37.1667 242.5,44.5C 206.284,48.7917 172.951,60.7917 142.5,80.5C 142.826,72.3159 142.492,64.3159 141.5,56.5C 172.503,37.6096 206.17,26.2763 242.5,22.5 Z"/></g>
<g><path style="opacity:0.992" fill="#fd8b30" d="M 327.5,27.5 C 358.675,34.76 387.342,47.4266 413.5,65.5C 413.826,74.3494 413.493,83.0161 412.5,91.5C 386.08,71.2903 356.746,56.9569 324.5,48.5C 325.5,48.5 326.5,48.5 327.5,48.5C 327.5,41.5 327.5,34.5 327.5,27.5 Z"/></g>
<g><path style="opacity:1" fill="#ffa22e" d="M 54.5,89.5 C 42.8189,101.006 29.8189,110.84 15.5,119C 3.07995,119.903 -1.08671,114.403 3,102.5C 19.8677,91.1465 35.701,78.4799 50.5,64.5C 52.7157,63.7974 54.549,62.4641 56,60.5C 57.0518,70.3527 56.5518,80.0194 54.5,89.5 Z"/></g>
<g><path style="opacity:0.981" fill="#fd8631" d="M 413.5,65.5 C 442.75,85.7456 466.417,111.079 484.5,141.5C 485.819,156.863 485.819,172.196 484.5,187.5C 468.542,149.532 444.542,117.532 412.5,91.5C 413.493,83.0161 413.826,74.3494 413.5,65.5 Z"/></g>
<g><path style="opacity:0.992" fill="#fd8a30" d="M 393.5,105.5 C 402.787,104.955 407.287,109.288 407,118.5C 404.466,126.074 399.299,128.574 391.5,126C 385.607,122.179 384.107,117.012 387,110.5C 388.805,108.174 390.972,106.508 393.5,105.5 Z"/></g>
<g><path style="opacity:0.969" fill="#fd8830" d="M 414.5,127.5 C 426.145,126.97 430.645,132.303 428,143.5C 422.553,149.29 416.553,149.957 410,145.5C 405.667,137.957 407.167,131.957 414.5,127.5 Z"/></g>
<g><path style="opacity:0.979" fill="#fd8a30" d="M 381.5,138.5 C 393.161,137.985 397.661,143.318 395,154.5C 388.546,161.115 382.213,161.115 376,154.5C 373.365,147.57 375.198,142.237 381.5,138.5 Z"/></g>
<g><path style="opacity:1" fill="#ffa22e" d="M 56.5,185.5 C 33.8627,243.495 33.8627,301.495 56.5,359.5C 56.8293,374.343 56.496,389.01 55.5,403.5C 30.439,363.624 18.1057,319.957 18.5,272.5C 18.2273,225.907 30.2273,182.907 54.5,143.5C 55.1174,143.389 55.6174,143.056 56,142.5C 56.4999,156.829 56.6666,171.163 56.5,185.5 Z"/></g>
<g><path style="opacity:0.991" fill="#fa4c37" d="M 1213.5,402.5 C 1213.33,392.494 1213.5,382.494 1214,372.5C 1214.38,373.056 1214.88,373.389 1215.5,373.5C 1218.92,378.385 1223.58,381.552 1229.5,383C 1248.35,386.825 1267.02,386.159 1285.5,381C 1292.87,376.243 1296.04,369.41 1295,360.5C 1297.19,301.482 1296.86,242.482 1294,183.5C 1292.65,178.815 1289.82,175.315 1285.5,173C 1264.83,167 1244.16,167 1223.5,173C 1219.59,175.406 1216.59,178.572 1214.5,182.5C 1213.83,172.5 1213.17,162.5 1212.5,152.5C 1219.73,149.35 1227.4,147.516 1235.5,147C 1248.17,146.333 1260.83,146.333 1273.5,147C 1288.31,147.488 1301.15,152.655 1312,162.5C 1316.23,168.522 1318.9,175.189 1320,182.5C 1321.99,245.167 1321.99,307.834 1320,370.5C 1318.34,385.685 1310.5,396.185 1296.5,402C 1289.05,404.631 1281.38,406.298 1273.5,407C 1260.83,407.667 1248.17,407.667 1235.5,407C 1227.98,406.329 1220.64,404.829 1213.5,402.5 Z"/></g>
<g><path style="opacity:0.975" fill="#fb6634" d="M 855.5,369.5 C 856.167,316.5 856.833,263.5 857.5,210.5C 860.425,225.385 862.925,240.385 865,255.5C 868.333,296.833 871.667,338.167 875,379.5C 877.041,380.423 879.208,380.756 881.5,380.5C 884.335,338.481 887.501,296.481 891,254.5C 896.45,219.8 902.117,185.133 908,150.5C 923.258,148.525 938.758,147.858 954.5,148.5C 954.5,234.167 954.5,319.833 954.5,405.5C 945.833,405.5 937.167,405.5 928.5,405.5C 928.186,327.804 929.519,250.137 932.5,172.5C 930.167,172.5 927.833,172.5 925.5,172.5C 919.777,224.838 913.944,277.171 908,329.5C 903.775,353.853 899.441,378.186 895,402.5C 889.578,403.808 883.911,404.475 878,404.5C 872.5,404.333 867,404.167 861.5,404C 858.911,392.631 856.911,381.131 855.5,369.5 Z"/></g>
<g><path style="opacity:0.994" fill="#f83c39" d="M 1554.5,148.5 C 1556.81,156.309 1557.14,164.309 1555.5,172.5C 1542.5,172.5 1529.5,172.5 1516.5,172.5C 1516.5,202.833 1516.5,233.167 1516.5,263.5C 1529.83,263.5 1543.17,263.5 1556.5,263.5C 1555.91,272.103 1556.58,280.436 1558.5,288.5C 1544.54,287.552 1530.54,287.219 1516.5,287.5C 1516.5,318.833 1516.5,350.167 1516.5,381.5C 1530.17,381.5 1543.83,381.5 1557.5,381.5C 1556.83,389.5 1556.17,397.5 1555.5,405.5C 1533.83,405.5 1512.17,405.5 1490.5,405.5C 1490.5,319.833 1490.5,234.167 1490.5,148.5C 1511.83,148.5 1533.17,148.5 1554.5,148.5 Z"/></g>
<g><path style="opacity:0.992" fill="#f93739" d="M 1554.5,148.5 C 1568.24,148.23 1581.57,150.397 1594.5,155C 1608.9,162.279 1616.4,174.112 1617,190.5C 1617.92,209.871 1617.59,229.205 1616,248.5C 1611.36,262.256 1601.86,270.589 1587.5,273.5C 1586.24,275.353 1586.24,277.186 1587.5,279C 1603.71,281.492 1613.54,290.659 1617,306.5C 1618.98,326.832 1618.98,347.166 1617,367.5C 1614.53,386.309 1604.03,397.809 1585.5,402C 1575.63,404.317 1565.63,405.483 1555.5,405.5C 1556.17,397.5 1556.83,389.5 1557.5,381.5C 1587.03,381.107 1598.7,366.274 1592.5,337C 1592.46,327.474 1591.96,317.974 1591,308.5C 1589.08,300.913 1584.58,295.413 1577.5,292C 1571.34,289.867 1565,288.701 1558.5,288.5C 1556.58,280.436 1555.91,272.103 1556.5,263.5C 1567.71,264.04 1577.55,260.707 1586,253.5C 1588.64,249.928 1590.3,245.928 1591,241.5C 1592.98,224.499 1592.98,207.499 1591,190.5C 1588.86,182.36 1583.69,177.193 1575.5,175C 1568.93,173.371 1562.26,172.538 1555.5,172.5C 1557.14,164.309 1556.81,156.309 1554.5,148.5 Z"/></g>
<g><path style="opacity:0.977" fill="#fb6c33" d="M 857.5,210.5 C 856.833,263.5 856.167,316.5 855.5,369.5C 852.578,356.384 850.078,343.05 848,329.5C 841.919,277.187 836.086,224.853 830.5,172.5C 828.167,172.5 825.833,172.5 823.5,172.5C 826.429,250.138 827.762,327.804 827.5,405.5C 818.833,405.5 810.167,405.5 801.5,405.5C 801.5,319.833 801.5,234.167 801.5,148.5C 816.848,148.167 832.181,148.501 847.5,149.5C 851.373,169.74 854.707,190.073 857.5,210.5 Z"/></g>
<g><path style="opacity:0.993" fill="#fa5236" d="M 1212.5,152.5 C 1213.17,162.5 1213.83,172.5 1214.5,182.5C 1210.44,246.225 1210.77,309.892 1215.5,373.5C 1214.88,373.389 1214.38,373.056 1214,372.5C 1213.5,382.494 1213.33,392.494 1213.5,402.5C 1195.04,393.937 1186.54,379.271 1188,358.5C 1185.75,299.813 1186.08,241.147 1189,182.5C 1191.15,167.868 1198.99,157.868 1212.5,152.5 Z"/></g>
<g><path style="opacity:0.966" fill="#fd8730" d="M 438.5,154.5 C 450.688,156.219 453.855,162.552 448,173.5C 438.222,178.858 432.056,176.192 429.5,165.5C 429.969,159.703 432.969,156.036 438.5,154.5 Z"/></g>
<g><path style="opacity:0.992" fill="#fd8930" d="M 403.5,160.5 C 414.666,159.822 419.166,164.822 417,175.5C 414.081,181.025 409.581,182.858 403.5,181C 396.124,176.733 394.624,170.899 399,163.5C 400.652,162.601 402.152,161.601 403.5,160.5 Z"/></g>
<g><path style="opacity:1" fill="#fd8331" d="M 484.5,141.5 C 513.449,188.306 525.616,239.306 521,294.5C 518.071,329.95 507.904,363.117 490.5,394C 494.221,394.681 497.887,395.514 501.5,396.5C 499.652,400.854 498.985,405.52 499.5,410.5C 494.556,410.246 489.889,409.246 485.5,407.5C 485.667,391.163 485.5,374.83 485,358.5C 484.617,359.056 484.117,359.389 483.5,359.5C 505.803,302.313 506.136,244.979 484.5,187.5C 485.819,172.196 485.819,156.863 484.5,141.5 Z"/></g>
<g><path style="opacity:0.971" fill="#fa5636" d="M 1127.5,171.5 C 1135.5,171.5 1143.5,171.5 1151.5,171.5C 1151.5,249.5 1151.5,327.5 1151.5,405.5C 1143.5,405.5 1135.5,405.5 1127.5,405.5C 1127.5,327.5 1127.5,249.5 1127.5,171.5 Z"/></g>
<g><path style="opacity:0.993" fill="#f71e3c" d="M 1930.5,180.5 C 1938.17,180.5 1945.83,180.5 1953.5,180.5C 1953.5,197.167 1953.5,213.833 1953.5,230.5C 1966.83,230.5 1980.17,230.5 1993.5,230.5C 1993.5,237.5 1993.5,244.5 1993.5,251.5C 1980.17,251.5 1966.83,251.5 1953.5,251.5C 1953.02,293.881 1953.52,336.214 1955,378.5C 1956.93,383.059 1960.43,385.559 1965.5,386C 1976.16,386.5 1986.83,386.667 1997.5,386.5C 1997.5,393.167 1997.5,399.833 1997.5,406.5C 1982.42,408.193 1967.42,407.693 1952.5,405C 1937.93,400.729 1930.43,390.896 1930,375.5C 1929.5,334.168 1929.33,292.835 1929.5,251.5C 1923.83,251.5 1918.17,251.5 1912.5,251.5C 1912.5,244.5 1912.5,237.5 1912.5,230.5C 1918.5,230.5 1924.5,230.5 1930.5,230.5C 1930.5,213.833 1930.5,197.167 1930.5,180.5 Z"/></g>
<g><path style="opacity:0.978" fill="#fe952f" d="M 241.5,221.5 C 242.143,231.265 242.81,240.932 243.5,250.5C 236.364,278.641 235.697,306.974 241.5,335.5C 240.957,335.56 240.624,335.893 240.5,336.5C 241.189,338.444 241.689,340.444 242,342.5C 242.167,349.167 242.333,355.833 242.5,362.5C 242.497,369.535 241.83,376.202 240.5,382.5C 219.974,331.172 218.141,279.172 235,226.5C 236.159,223.507 238.325,221.84 241.5,221.5 Z"/></g>
<g><path style="opacity:0.974" fill="#fe922f" d="M 241.5,221.5 C 267.578,230.36 293.578,239.527 319.5,249C 321.286,249.785 322.786,250.951 324,252.5C 325.848,256.859 327.682,261.192 329.5,265.5C 328.167,273.833 326.833,282.167 325.5,290.5C 320.554,281.178 315.887,271.678 311.5,262C 301.243,258.192 290.91,254.692 280.5,251.5C 266.113,310.281 276.946,363.948 313,412.5C 318.001,418.998 323.167,425.331 328.5,431.5C 327.51,437.645 327.177,443.978 327.5,450.5C 276.821,402.432 254.654,343.432 261,273.5C 262.281,264.089 264.448,254.922 267.5,246C 260.795,243.598 254.128,241.098 247.5,238.5C 245.557,242.263 244.223,246.263 243.5,250.5C 242.81,240.932 242.143,231.265 241.5,221.5 Z"/></g>
<g><path style="opacity:0.991" fill="#fb5b36" d="M 1007.5,323.5 C 1014.31,322.509 1021.31,322.175 1028.5,322.5C 1028.5,316.5 1028.5,310.5 1028.5,304.5C 1021.31,304.825 1014.31,304.491 1007.5,303.5C 1028.5,303.5 1049.5,303.5 1070.5,303.5C 1071.88,289.813 1071.71,276.146 1070,262.5C 1067.75,255.442 1062.91,251.275 1055.5,250C 1046.84,248.388 1038.17,248.221 1029.5,249.5C 1028.17,242.5 1028.17,235.5 1029.5,228.5C 1042.62,226.97 1055.62,227.803 1068.5,231C 1085.16,236.787 1093.66,248.62 1094,266.5C 1094.77,285.52 1094.6,304.52 1093.5,323.5C 1064.83,323.5 1036.17,323.5 1007.5,323.5 Z"/></g>
<g><path style="opacity:0.992" fill="#f82e3a" d="M 1753.5,323.5 C 1726.01,322.502 1698.34,322.169 1670.5,322.5C 1671.06,315.879 1670.39,309.545 1668.5,303.5C 1689.5,303.5 1710.5,303.5 1731.5,303.5C 1732.42,292.512 1732.58,281.512 1732,270.5C 1732.46,259.306 1727.29,252.473 1716.5,250C 1703.66,247.656 1691,248.323 1678.5,252C 1675.25,253.274 1672.91,255.44 1671.5,258.5C 1670.51,249.682 1670.17,240.682 1670.5,231.5C 1691.21,226.002 1711.88,226.169 1732.5,232C 1747.14,238.671 1754.64,250.171 1755,266.5C 1755.67,283.833 1755.67,301.167 1755,318.5C 1754.8,320.382 1754.3,322.048 1753.5,323.5 Z"/></g>
<g><path style="opacity:0.986" fill="#f8283b" d="M 1844.5,227.5 C 1842.6,233.882 1841.93,240.549 1842.5,247.5C 1841.21,247.263 1840.21,247.596 1839.5,248.5C 1830.86,248.377 1822.52,249.877 1814.5,253C 1811.16,255.341 1809,258.507 1808,262.5C 1807.5,272.494 1807.33,282.494 1807.5,292.5C 1799.83,292.5 1792.17,292.5 1784.5,292.5C 1783.08,280.487 1783.25,268.487 1785,256.5C 1788.83,241.655 1798.33,232.821 1813.5,230C 1823.75,228.13 1834.08,227.297 1844.5,227.5 Z"/></g>
<g><path style="opacity:0.991" fill="#fb6035" d="M 1029.5,228.5 C 1028.17,235.5 1028.17,242.5 1029.5,249.5C 1021.42,249.349 1014.92,252.349 1010,258.5C 1008.14,273.412 1007.31,288.412 1007.5,303.5C 1014.31,304.491 1021.31,304.825 1028.5,304.5C 1028.5,310.5 1028.5,316.5 1028.5,322.5C 1021.31,322.175 1014.31,322.509 1007.5,323.5C 1007.36,341.247 1008.2,358.914 1010,376.5C 1011.89,380.058 1014.73,382.558 1018.5,384C 1022.44,385.156 1026.44,385.99 1030.5,386.5C 1028.6,392.882 1027.93,399.549 1028.5,406.5C 1027.5,406.5 1026.5,406.5 1025.5,406.5C 996.485,404.981 982.652,389.647 984,360.5C 983.333,332.167 983.333,303.833 984,275.5C 982.735,243.932 997.902,228.265 1029.5,228.5 Z"/></g>
<g><path style="opacity:0.986" fill="#f94138" d="M 1413.5,227.5 C 1422.69,227.274 1431.69,228.44 1440.5,231C 1452.3,236.75 1458.47,246.25 1459,259.5C 1459.5,308.166 1459.67,356.832 1459.5,405.5C 1451.5,405.5 1443.5,405.5 1435.5,405.5C 1435.67,357.166 1435.5,308.832 1435,260.5C 1432.97,253.81 1428.47,249.977 1421.5,249C 1418.18,248.502 1414.85,248.335 1411.5,248.5C 1413.4,241.781 1414.07,234.781 1413.5,227.5 Z"/></g>
<g><path style="opacity:0.989" fill="#f7243b" d="M 1844.5,227.5 C 1854.52,228.072 1864.19,230.238 1873.5,234C 1885.6,243.042 1891.1,255.208 1890,270.5C 1890.5,315.499 1890.67,360.499 1890.5,405.5C 1882.5,405.5 1874.5,405.5 1866.5,405.5C 1866.5,400.167 1866.5,394.833 1866.5,389.5C 1864.71,389.215 1863.05,389.548 1861.5,390.5C 1857.58,397.428 1851.92,402.095 1844.5,404.5C 1842.55,398.926 1841.88,392.926 1842.5,386.5C 1852.24,384.913 1860.07,380.247 1866,372.5C 1866.83,354.491 1866.67,336.491 1865.5,318.5C 1858.53,320.327 1851.53,321.994 1844.5,323.5C 1843.18,320.913 1842.52,317.913 1842.5,314.5C 1842.83,311.5 1843.17,308.5 1843.5,305.5C 1844.74,305.058 1845.74,304.391 1846.5,303.5C 1853.07,301.525 1859.73,299.858 1866.5,298.5C 1866.94,285.093 1866.44,271.76 1865,258.5C 1863.5,255.667 1861.33,253.5 1858.5,252C 1852.31,250.044 1845.98,248.878 1839.5,248.5C 1840.21,247.596 1841.21,247.263 1842.5,247.5C 1841.93,240.549 1842.6,233.882 1844.5,227.5 Z"/></g>
<g><path style="opacity:0.993" fill="#f94637" d="M 1413.5,227.5 C 1414.07,234.781 1413.4,241.781 1411.5,248.5C 1397.38,247.806 1385.88,252.806 1377,263.5C 1376.5,310.832 1376.33,358.165 1376.5,405.5C 1368.5,405.5 1360.5,405.5 1352.5,405.5C 1352.5,347.167 1352.5,288.833 1352.5,230.5C 1360.5,230.5 1368.5,230.5 1376.5,230.5C 1376.5,235.833 1376.5,241.167 1376.5,246.5C 1378.29,246.785 1379.95,246.452 1381.5,245.5C 1389.18,234.325 1399.84,228.325 1413.5,227.5 Z"/></g>
<g><path style="opacity:0.991" fill="#f8333a" d="M 1670.5,231.5 C 1670.17,240.682 1670.51,249.682 1671.5,258.5C 1670.91,259.766 1670.41,261.099 1670,262.5C 1669.08,276.153 1668.58,289.82 1668.5,303.5C 1670.39,309.545 1671.06,315.879 1670.5,322.5C 1698.34,322.169 1726.01,322.502 1753.5,323.5C 1725.17,323.5 1696.83,323.5 1668.5,323.5C 1668.69,339.841 1669.19,356.174 1670,372.5C 1670.37,375.565 1671.53,378.232 1673.5,380.5C 1672.5,380.586 1671.67,380.252 1671,379.5C 1670.56,387.801 1670.4,395.801 1670.5,403.5C 1658.16,399.991 1650.33,391.991 1647,379.5C 1645.89,372.885 1645.23,366.218 1645,359.5C 1644.33,331.833 1644.33,304.167 1645,276.5C 1643.82,262.351 1647.66,249.851 1656.5,239C 1660.75,235.709 1665.41,233.209 1670.5,231.5 Z"/></g>
<g><path style="opacity:0.983" fill="#fd8c30" d="M 329.5,265.5 C 348.649,305.311 376.649,337.311 413.5,361.5C 413.821,367.026 413.488,372.36 412.5,377.5C 375.855,356.188 346.855,327.188 325.5,290.5C 326.833,282.167 328.167,273.833 329.5,265.5 Z"/></g>
<g><path style="opacity:0.988" fill="#f8293b" d="M 1846.5,303.5 C 1845.74,304.391 1844.74,305.058 1843.5,305.5C 1843.17,308.5 1842.83,311.5 1842.5,314.5C 1842.52,317.913 1843.18,320.913 1844.5,323.5C 1837.57,325.868 1830.57,328.368 1823.5,331C 1805.56,339.754 1799.4,353.921 1805,373.5C 1809.62,381.899 1816.78,386.399 1826.5,387C 1831.85,387.432 1837.18,387.266 1842.5,386.5C 1841.88,392.926 1842.55,398.926 1844.5,404.5C 1794.21,415.381 1773.38,395.381 1782,344.5C 1787.54,329.293 1798.04,319.127 1813.5,314C 1824.29,309.791 1835.29,306.291 1846.5,303.5 Z"/></g>
<g><path style="opacity:0.989" fill="#fa5b35" d="M 1025.5,406.5 C 1026.5,406.5 1027.5,406.5 1028.5,406.5C 1027.93,399.549 1028.6,392.882 1030.5,386.5C 1039.55,386.807 1048.55,386.307 1057.5,385C 1064.33,383.5 1068.5,379.333 1070,372.5C 1070.5,362.506 1070.67,352.506 1070.5,342.5C 1078.61,341.886 1086.44,342.553 1094,344.5C 1095.44,358.794 1094.1,372.794 1090,386.5C 1084.29,397.779 1075.13,404.279 1062.5,406C 1050.03,407.685 1037.7,407.852 1025.5,406.5 Z"/></g>
<g><path style="opacity:0.987" fill="#f82e3a" d="M 1670.5,403.5 C 1670.4,395.801 1670.56,387.801 1671,379.5C 1671.67,380.252 1672.5,380.586 1673.5,380.5C 1681.78,385.291 1690.78,387.291 1700.5,386.5C 1709.26,387.152 1717.59,385.652 1725.5,382C 1728.75,379.658 1730.59,376.491 1731,372.5C 1731.5,362.506 1731.67,352.506 1731.5,342.5C 1739.61,341.886 1747.44,342.553 1755,344.5C 1755.78,355.202 1755.44,365.869 1754,376.5C 1749.61,396.464 1737.11,406.63 1716.5,407C 1706.5,407.667 1696.5,407.667 1686.5,407C 1680.89,406.514 1675.56,405.347 1670.5,403.5 Z"/></g>
<g><path style="opacity:0.976" fill="#fe922f" d="M 241.5,335.5 C 254.879,392.619 284.213,439.619 329.5,476.5C 329.19,477.738 328.69,477.738 328,476.5C 327.785,481.915 327.285,487.248 326.5,492.5C 288.478,463.145 259.812,426.478 240.5,382.5C 241.83,376.202 242.497,369.535 242.5,362.5C 242.333,355.833 242.167,349.167 242,342.5C 241.689,340.444 241.189,338.444 240.5,336.5C 240.624,335.893 240.957,335.56 241.5,335.5 Z"/></g>
<g><path style="opacity:0.973" fill="#fd8631" d="M 485.5,407.5 C 459.301,401.774 434.967,391.774 412.5,377.5C 413.488,372.36 413.821,367.026 413.5,361.5C 430.763,371.88 448.929,380.546 468,387.5C 469.261,387.241 470.261,386.574 471,385.5C 475.453,376.929 479.62,368.262 483.5,359.5C 484.117,359.389 484.617,359.056 485,358.5C 485.5,374.83 485.667,391.163 485.5,407.5 Z"/></g>
<g><path style="opacity:0.99" fill="#fe9e2e" d="M 56.5,359.5 C 75.2225,403.227 104.222,438.56 143.5,465.5C 143.202,473.491 142.202,481.157 140.5,488.5C 105.145,467.145 76.812,438.812 55.5,403.5C 56.496,389.01 56.8293,374.343 56.5,359.5 Z"/></g>
<g><path style="opacity:0.973" fill="#fc7932" d="M 690.5,384.5 C 688.856,384.714 687.356,384.38 686,383.5C 685.777,388.25 685.277,392.916 684.5,397.5C 675.968,394.653 667.468,391.653 659,388.5C 640.157,398.392 620.324,405.392 599.5,409.5C 600.015,404.52 599.348,399.854 597.5,395.5C 617.2,390.989 635.867,383.823 653.5,374C 656.5,373.333 659.5,373.333 662.5,374C 672.048,377.234 681.382,380.734 690.5,384.5 Z"/></g>
<g><path style="opacity:0.996" fill="#fc7532" d="M 690.5,384.5 C 706.853,390.006 723.019,396.006 739,402.5C 739.958,404.199 740.458,406.033 740.5,408C 730.506,438.505 713.839,464.671 690.5,486.5C 688.629,486.859 687.129,487.859 686,489.5C 685.333,483.833 685.333,478.167 686,472.5C 687.481,471.529 688.315,470.196 688.5,468.5C 703.456,451.601 715.123,432.601 723.5,411.5C 716.828,409.665 710.328,407.332 704,404.5C 699.264,414.977 693.764,424.977 687.5,434.5C 685.847,427.054 684.847,419.388 684.5,411.5C 686.026,407.615 687.692,403.781 689.5,400C 687.685,399.243 686.019,398.41 684.5,397.5C 685.277,392.916 685.777,388.25 686,383.5C 687.356,384.38 688.856,384.714 690.5,384.5 Z"/></g>
<g><path style="opacity:1" fill="#fd8031" d="M 597.5,395.5 C 599.348,399.854 600.015,404.52 599.5,409.5C 573.238,415.491 546.571,416.991 519.5,414C 512.592,413.422 505.926,412.256 499.5,410.5C 498.985,405.52 499.652,400.854 501.5,396.5C 533.572,402.113 565.572,401.78 597.5,395.5 Z"/></g>
<g><path style="opacity:0.969" fill="#fc7932" d="M 684.5,411.5 C 684.847,419.388 685.847,427.054 687.5,434.5C 665.427,466.566 636.427,490.232 600.5,505.5C 600.137,500.28 599.137,495.28 597.5,490.5C 635.146,473.513 664.146,447.179 684.5,411.5 Z"/></g>
<g><path style="opacity:0.987" fill="#fd8c30" d="M 328.5,431.5 C 340.744,443.579 353.744,454.746 367.5,465C 381.777,473.969 396.444,482.136 411.5,489.5C 413.14,494.618 414.14,499.952 414.5,505.5C 381.38,493.453 352.38,475.12 327.5,450.5C 327.177,443.978 327.51,437.645 328.5,431.5 Z"/></g>
<g><path style="opacity:0.984" fill="#fe982f" d="M 143.5,465.5 C 172.543,484.072 204.21,495.739 238.5,500.5C 239.287,502.104 240.62,502.771 242.5,502.5C 242.5,508.833 242.5,515.167 242.5,521.5C 240.901,521.232 239.568,521.566 238.5,522.5C 203.306,518.103 170.639,506.77 140.5,488.5C 142.202,481.157 143.202,473.491 143.5,465.5 Z"/></g>
<g><path style="opacity:0.964" fill="#fc7932" d="M 688.5,468.5 C 688.315,470.196 687.481,471.529 686,472.5C 685.333,478.167 685.333,483.833 686,489.5C 687.129,487.859 688.629,486.859 690.5,486.5C 664.603,512.463 633.936,530.797 598.5,541.5C 599.833,536.5 599.833,531.5 598.5,526.5C 633.128,514.196 663.128,494.862 688.5,468.5 Z"/></g>
<g><path style="opacity:0.986" fill="#fd8c30" d="M 329.5,476.5 C 355.272,496.89 383.605,512.89 414.5,524.5C 413.833,529.167 413.167,533.833 412.5,538.5C 392.065,532.116 372.731,523.283 354.5,512C 345.491,513.496 336.491,515.329 327.5,517.5C 328.128,510.087 327.461,503.087 325.5,496.5C 326.609,495.71 327.942,495.21 329.5,495C 328.429,494.148 327.429,493.315 326.5,492.5C 327.285,487.248 327.785,481.915 328,476.5C 328.69,477.738 329.19,477.738 329.5,476.5 Z"/></g>
<g><path style="opacity:0.971" fill="#fd8631" d="M 411.5,489.5 C 440.034,501.05 469.701,507.383 500.5,508.5C 499.167,513.5 499.167,518.5 500.5,523.5C 470.609,522.723 441.942,516.723 414.5,505.5C 414.14,499.952 413.14,494.618 411.5,489.5 Z"/></g>
<g><path style="opacity:1" fill="#fd8031" d="M 597.5,490.5 C 599.137,495.28 600.137,500.28 600.5,505.5C 568.491,518.613 535.158,524.613 500.5,523.5C 499.167,518.5 499.167,513.5 500.5,508.5C 534.105,509.981 566.438,503.981 597.5,490.5 Z"/></g>
<g><path style="opacity:0.986" fill="#fe922f" d="M 325.5,496.5 C 327.461,503.087 328.128,510.087 327.5,517.5C 298.274,524.631 268.607,526.298 238.5,522.5C 239.568,521.566 240.901,521.232 242.5,521.5C 242.5,515.167 242.5,508.833 242.5,502.5C 240.62,502.771 239.287,502.104 238.5,500.5C 267.706,504.567 296.706,503.234 325.5,496.5 Z"/></g>
<g><path style="opacity:0.972" fill="#fd8630" d="M 414.5,524.5 C 442.689,534.204 471.689,539.538 501.5,540.5C 499.652,544.854 498.985,549.52 499.5,554.5C 492.5,554.5 485.5,554.5 478.5,554.5C 455.931,551.585 433.931,546.252 412.5,538.5C 413.167,533.833 413.833,529.167 414.5,524.5 Z"/></g>
<g><path style="opacity:1" fill="#fc8031" d="M 598.5,526.5 C 599.833,531.5 599.833,536.5 598.5,541.5C 592.143,544.264 585.476,546.43 578.5,548C 566.756,550.517 555.089,552.684 543.5,554.5C 528.833,554.5 514.167,554.5 499.5,554.5C 498.985,549.52 499.652,544.854 501.5,540.5C 534.697,542.186 567.031,537.519 598.5,526.5 Z"/></g>
</svg>
