<?xml version="1.0" encoding="UTF-8"?>
<!DOCTYPE svg PUBLIC "-//W3C//DTD SVG 1.1//EN" "http://www.w3.org/Graphics/SVG/1.1/DTD/svg11.dtd">
<svg xmlns="http://www.w3.org/2000/svg" version="1.1" width="2000px" height="555px" style="shape-rendering:geometricPrecision; text-rendering:geometricPrecision; image-rendering:optimizeQuality; fill-rule:evenodd; clip-rule:evenodd" xmlns:xlink="http://www.w3.org/1999/xlink">
<g><path style="opacity:0.934" fill="#fefffe" d="M 105.5,-0.5 C 109.833,-0.5 114.167,-0.5 118.5,-0.5C 122.713,4.22475 123.547,9.55808 121,15.5C 110.131,31.227 98.2972,46.227 85.5,60.5C 92.152,67.6523 98.9853,74.6523 106,81.5C 174.689,25.6252 252.189,8.45853 338.5,30C 413.469,53.3034 467.635,100.47 501,171.5C 524.184,227.542 527.851,284.875 512,343.5C 506.769,361.203 499.603,378.036 490.5,394C 542.004,406.366 592.004,402.033 640.5,381C 646.123,377.766 651.956,375.266 658,373.5C 685.419,381.973 712.419,391.64 739,402.5C 740.913,406.471 740.913,410.471 739,414.5C 713.524,473.641 670.69,514.808 610.5,538C 588.671,546.126 566.337,551.626 543.5,554.5C 521.833,554.5 500.167,554.5 478.5,554.5C 433.568,548.467 391.402,534.134 352,511.5C 268.401,537.036 190.901,524.869 119.5,475C 47.6408,418.09 14.1408,343.59 19,251.5C 24.6971,191.511 48.1971,139.845 89.5,96.5C 83.1667,89.5 76.5,82.8333 69.5,76.5C 53.1344,92.8365 35.1344,107.003 15.5,119C 4.48114,120.313 -0.0188556,115.48 2,104.5C 2.78451,102.714 3.95118,101.214 5.5,100C 45.71,73.2901 79.0434,39.7901 105.5,-0.5 Z M 252.5,42.5 C 344.145,39.5692 415.312,75.9025 466,151.5C 510.075,228.55 511.742,306.55 471,385.5C 470.261,386.574 469.261,387.241 468,387.5C 399.168,362.857 350.335,317.024 321.5,250C 295.91,240.47 270.243,231.136 244.5,222C 242.029,221.294 239.695,221.627 237.5,223C 234.902,226.783 233.068,230.95 232,235.5C 213.096,310.648 227.096,378.981 274,440.5C 290.204,461.038 308.704,479.205 329.5,495C 244.102,514.904 169.769,494.737 106.5,434.5C 51.5416,376.44 30.7082,307.773 44,228.5C 65.1911,138.643 119.691,79.4759 207.5,51C 222.438,47.0689 237.438,44.2356 252.5,42.5 Z M 246.5,238.5 C 253.514,240.894 260.514,243.394 267.5,246C 252.002,301.522 259.168,354.022 289,403.5C 336.656,475.441 403.823,515.274 490.5,523C 551.007,527.38 605.007,511.047 652.5,474C 674.896,454.706 692.063,431.54 704,404.5C 710.328,407.332 716.828,409.665 723.5,411.5C 706.659,452.641 678.993,484.475 640.5,507C 575.813,542.336 507.813,550.336 436.5,531C 364.676,510.705 308.842,469.205 269,406.5C 237.725,353.633 230.225,297.633 246.5,238.5 Z M 280.5,251.5 C 291.169,254.668 301.669,258.334 312,262.5C 344.792,335.948 399.959,383.781 477.5,406C 540.285,423.116 600.785,417.283 659,388.5C 669.167,392.333 679.333,396.167 689.5,400C 663.856,453.281 622.19,487.281 564.5,502C 485.348,518.712 414.014,502.045 350.5,452C 310.923,419.026 286.089,377.192 276,326.5C 272.138,301.174 273.638,276.174 280.5,251.5 Z"/></g>
<g><path style="opacity:0.888" fill="#fefffe" d="M 393.5,105.5 C 402.787,104.955 407.287,109.288 407,118.5C 404.466,126.074 399.299,128.574 391.5,126C 385.607,122.179 384.107,117.012 387,110.5C 388.805,108.174 390.972,106.508 393.5,105.5 Z"/></g>
<g><path style="opacity:0.895" fill="#fefffe" d="M 414.5,127.5 C 426.145,126.97 430.645,132.303 428,143.5C 422.553,149.29 416.553,149.957 410,145.5C 405.667,137.957 407.167,131.957 414.5,127.5 Z"/></g>
<g><path style="opacity:0.892" fill="#fefffe" d="M 381.5,138.5 C 393.161,137.985 397.661,143.318 395,154.5C 388.546,161.115 382.213,161.115 376,154.5C 373.365,147.57 375.198,142.237 381.5,138.5 Z"/></g>
<g><path style="opacity:0.959" fill="#fefffe" d="M 1235.5,146.5 C 1248.17,146.333 1260.84,146.5 1273.5,147C 1288.31,147.488 1301.15,152.655 1312,162.5C 1316.23,168.522 1318.9,175.189 1320,182.5C 1321.99,245.167 1321.99,307.834 1320,370.5C 1317.33,390.166 1306.17,401.666 1286.5,405C 1269.58,407.437 1252.58,408.103 1235.5,407C 1224.48,406.329 1214.15,403.329 1204.5,398C 1195.34,391.19 1190.17,382.023 1189,370.5C 1185.67,307.834 1185.67,245.168 1189,182.5C 1191.24,167.933 1199.08,157.767 1212.5,152C 1220.13,149.445 1227.8,147.612 1235.5,146.5 Z M 1242.5,168.5 C 1254.93,168.032 1267.26,168.865 1279.5,171C 1286.82,172.326 1291.66,176.492 1294,183.5C 1296.86,242.482 1297.19,301.482 1295,360.5C 1295.66,374.838 1288.83,382.671 1274.5,384C 1259.44,386.192 1244.44,385.859 1229.5,383C 1222.67,381.67 1217.84,377.837 1215,371.5C 1210.57,308.496 1210.57,245.496 1215,182.5C 1216.4,179.098 1218.57,176.264 1221.5,174C 1228.35,171.04 1235.35,169.207 1242.5,168.5 Z"/></g>
<g><path style="opacity:0.954" fill="#fefffe" d="M 801.5,148.5 C 817.242,147.858 832.742,148.525 848,150.5C 853.775,185.484 859.442,220.484 865,255.5C 868.333,296.833 871.667,338.167 875,379.5C 877.041,380.423 879.208,380.756 881.5,380.5C 884.335,338.481 887.501,296.481 891,254.5C 896.45,219.8 902.117,185.133 908,150.5C 923.258,148.525 938.758,147.858 954.5,148.5C 954.5,234.167 954.5,319.833 954.5,405.5C 945.833,405.5 937.167,405.5 928.5,405.5C 928.186,327.804 929.519,250.137 932.5,172.5C 930.167,172.5 927.833,172.5 925.5,172.5C 919.777,224.838 913.944,277.171 908,329.5C 903.775,353.853 899.441,378.186 895,402.5C 889.578,403.808 883.911,404.475 878,404.5C 872.255,404.489 866.588,404.156 861,403.5C 856.538,378.856 852.205,354.19 848,329.5C 841.919,277.187 836.086,224.853 830.5,172.5C 828.167,172.5 825.833,172.5 823.5,172.5C 826.429,250.138 827.762,327.804 827.5,405.5C 818.833,405.5 810.167,405.5 801.5,405.5C 801.5,319.833 801.5,234.167 801.5,148.5 Z"/></g>
<g><path style="opacity:0.958" fill="#fefffe" d="M 1490.5,148.5 C 1518.86,148.079 1547.19,148.579 1575.5,150C 1600.75,152.007 1614.59,165.507 1617,190.5C 1617.92,209.871 1617.59,229.205 1616,248.5C 1611.36,262.256 1601.86,270.589 1587.5,273.5C 1586.24,275.353 1586.24,277.186 1587.5,279C 1603.71,281.492 1613.54,290.659 1617,306.5C 1619.47,329.95 1618.8,353.283 1615,376.5C 1609.97,390.449 1600.13,398.949 1585.5,402C 1579.57,403.432 1573.57,404.432 1567.5,405C 1541.84,405.5 1516.17,405.667 1490.5,405.5C 1490.5,319.833 1490.5,234.167 1490.5,148.5 Z M 1516.5,172.5 C 1532.5,172.333 1548.5,172.5 1564.5,173C 1574.56,173.01 1582.73,176.844 1589,184.5C 1591.63,194.634 1592.8,204.968 1592.5,215.5C 1592.55,225.586 1591.72,235.586 1590,245.5C 1588.4,250.877 1585.23,255.044 1580.5,258C 1575.77,260.466 1570.77,262.133 1565.5,263C 1549.17,263.5 1532.84,263.667 1516.5,263.5C 1516.5,233.167 1516.5,202.833 1516.5,172.5 Z M 1516.5,287.5 C 1529.5,287.333 1542.5,287.5 1555.5,288C 1564.6,288.219 1573.26,290.219 1581.5,294C 1586.69,297.524 1589.86,302.357 1591,308.5C 1592.98,327.168 1592.98,345.835 1591,364.5C 1588.03,372.136 1582.53,376.969 1574.5,379C 1571.21,379.882 1567.88,380.548 1564.5,381C 1548.5,381.5 1532.5,381.667 1516.5,381.5C 1516.5,350.167 1516.5,318.833 1516.5,287.5 Z"/></g>
<g><path style="opacity:0.892" fill="#fefffe" d="M 438.5,154.5 C 450.688,156.219 453.855,162.552 448,173.5C 438.222,178.858 432.056,176.192 429.5,165.5C 429.969,159.703 432.969,156.036 438.5,154.5 Z"/></g>
<g><path style="opacity:0.892" fill="#fefffe" d="M 403.5,160.5 C 414.666,159.822 419.166,164.822 417,175.5C 414.081,181.025 409.581,182.858 403.5,181C 396.124,176.733 394.624,170.899 399,163.5C 400.652,162.601 402.152,161.601 403.5,160.5 Z"/></g>
<g><path style="opacity:0.966" fill="#fefffe" d="M 1127.5,171.5 C 1135.5,171.5 1143.5,171.5 1151.5,171.5C 1151.5,249.5 1151.5,327.5 1151.5,405.5C 1143.5,405.5 1135.5,405.5 1127.5,405.5C 1127.5,327.5 1127.5,249.5 1127.5,171.5 Z"/></g>
<g><path style="opacity:0.961" fill="#fefffe" d="M 1930.5,180.5 C 1938.17,180.5 1945.83,180.5 1953.5,180.5C 1953.5,197.167 1953.5,213.833 1953.5,230.5C 1966.83,230.5 1980.17,230.5 1993.5,230.5C 1993.5,237.5 1993.5,244.5 1993.5,251.5C 1980.17,251.5 1966.83,251.5 1953.5,251.5C 1953.02,293.881 1953.52,336.214 1955,378.5C 1956.93,383.059 1960.43,385.559 1965.5,386C 1976.16,386.5 1986.83,386.667 1997.5,386.5C 1997.5,393.167 1997.5,399.833 1997.5,406.5C 1982.42,408.193 1967.42,407.693 1952.5,405C 1937.93,400.729 1930.43,390.896 1930,375.5C 1929.5,334.168 1929.33,292.835 1929.5,251.5C 1923.83,251.5 1918.17,251.5 1912.5,251.5C 1912.5,244.5 1912.5,237.5 1912.5,230.5C 1918.5,230.5 1924.5,230.5 1930.5,230.5C 1930.5,213.833 1930.5,197.167 1930.5,180.5 Z"/></g>
<g><path style="opacity:0.954" fill="#fefffe" d="M 1031.5,227.5 C 1043.99,227.083 1056.33,228.249 1068.5,231C 1085.16,236.787 1093.66,248.62 1094,266.5C 1094.77,285.52 1094.6,304.52 1093.5,323.5C 1064.83,323.5 1036.17,323.5 1007.5,323.5C 1007.62,340.177 1008.12,356.843 1009,373.5C 1010.91,379.74 1015.07,383.573 1021.5,385C 1031.45,386.498 1041.45,386.831 1051.5,386C 1061.08,385.979 1067.24,381.479 1070,372.5C 1070.5,362.506 1070.67,352.506 1070.5,342.5C 1078.61,341.886 1086.44,342.553 1094,344.5C 1094.95,356.6 1094.29,368.6 1092,380.5C 1089.75,390.185 1084.25,397.351 1075.5,402C 1069.08,404.606 1062.41,406.272 1055.5,407C 1041.4,408.064 1027.4,407.397 1013.5,405C 1000.78,402.608 991.943,395.441 987,383.5C 985.104,375.958 984.104,368.291 984,360.5C 983.333,332.167 983.333,303.833 984,275.5C 983.336,263.135 986.336,251.802 993,241.5C 998.174,236.327 1004.34,232.827 1011.5,231C 1018.23,229.384 1024.9,228.218 1031.5,227.5 Z M 1032.5,248.5 C 1043.19,247.794 1053.53,249.294 1063.5,253C 1066.84,255.341 1069,258.507 1070,262.5C 1071.71,276.146 1071.88,289.813 1070.5,303.5C 1049.5,303.5 1028.5,303.5 1007.5,303.5C 1007.31,288.412 1008.14,273.412 1010,258.5C 1011.76,255.527 1014.26,253.36 1017.5,252C 1022.55,250.425 1027.55,249.259 1032.5,248.5 Z"/></g>
<g><path style="opacity:0.956" fill="#fefffe" d="M 1412.5,227.5 C 1422.03,227.191 1431.36,228.358 1440.5,231C 1452.3,236.75 1458.47,246.25 1459,259.5C 1459.5,308.166 1459.67,356.832 1459.5,405.5C 1451.5,405.5 1443.5,405.5 1435.5,405.5C 1435.67,357.166 1435.5,308.832 1435,260.5C 1432.97,253.81 1428.47,249.977 1421.5,249C 1407.42,246.683 1394.42,249.349 1382.5,257C 1380.29,258.873 1378.46,261.04 1377,263.5C 1376.5,310.832 1376.33,358.165 1376.5,405.5C 1368.5,405.5 1360.5,405.5 1352.5,405.5C 1352.5,347.167 1352.5,288.833 1352.5,230.5C 1360.5,230.5 1368.5,230.5 1376.5,230.5C 1376.5,235.833 1376.5,241.167 1376.5,246.5C 1378.29,246.785 1379.95,246.452 1381.5,245.5C 1389.01,234.58 1399.34,228.58 1412.5,227.5 Z"/></g>
<g><path style="opacity:0.954" fill="#fefffe" d="M 1692.5,227.5 C 1704.99,227.083 1717.33,228.249 1729.5,231C 1746.17,236.793 1754.67,248.626 1755,266.5C 1755.77,285.52 1755.6,304.52 1754.5,323.5C 1725.83,323.5 1697.17,323.5 1668.5,323.5C 1668.69,339.841 1669.19,356.174 1670,372.5C 1670.96,378.127 1674.12,381.96 1679.5,384C 1690.38,386.412 1701.38,387.078 1712.5,386C 1719.08,385.793 1724.58,383.293 1729,378.5C 1729.97,376.608 1730.64,374.608 1731,372.5C 1731.5,362.506 1731.67,352.506 1731.5,342.5C 1739.61,341.886 1747.44,342.553 1755,344.5C 1756,356.605 1755.33,368.605 1753,380.5C 1750,392.166 1742.83,399.999 1731.5,404C 1710.08,408.908 1688.75,408.575 1667.5,403C 1654.66,397.817 1647.49,388.317 1646,374.5C 1644.45,341.85 1644.12,309.184 1645,276.5C 1644.21,263.791 1647.21,252.125 1654,241.5C 1659.17,236.327 1665.34,232.827 1672.5,231C 1679.25,229.502 1685.92,228.335 1692.5,227.5 Z M 1693.5,248.5 C 1704.19,247.794 1714.53,249.294 1724.5,253C 1729.89,257.494 1732.39,263.328 1732,270.5C 1732.58,281.512 1732.42,292.512 1731.5,303.5C 1710.5,303.5 1689.5,303.5 1668.5,303.5C 1668.34,288.746 1669.17,274.079 1671,259.5C 1672.26,255.781 1674.76,253.281 1678.5,252C 1683.55,250.425 1688.55,249.259 1693.5,248.5 Z"/></g>
<g><path style="opacity:0.945" fill="#fefffe" d="M 1828.5,227.5 C 1843.18,226.742 1857.52,228.576 1871.5,233C 1878.78,236.948 1883.95,242.782 1887,250.5C 1888.88,257.028 1889.88,263.695 1890,270.5C 1890.5,315.499 1890.67,360.499 1890.5,405.5C 1882.5,405.5 1874.5,405.5 1866.5,405.5C 1866.5,400.167 1866.5,394.833 1866.5,389.5C 1864.71,389.215 1863.05,389.548 1861.5,390.5C 1852.94,403.537 1840.77,409.203 1825,407.5C 1794.12,408.449 1778.95,393.449 1779.5,362.5C 1779.04,345.688 1785.37,332.188 1798.5,322C 1819.92,310.692 1842.59,302.858 1866.5,298.5C 1866.94,285.093 1866.44,271.76 1865,258.5C 1859.92,251.903 1853.09,248.736 1844.5,249C 1834.96,248.03 1825.62,249.03 1816.5,252C 1812.13,254.226 1809.3,257.726 1808,262.5C 1807.5,272.494 1807.33,282.494 1807.5,292.5C 1799.83,292.5 1792.17,292.5 1784.5,292.5C 1783.08,280.487 1783.25,268.487 1785,256.5C 1787.39,245.189 1793.89,237.356 1804.5,233C 1812.41,230.189 1820.41,228.356 1828.5,227.5 Z M 1864.5,318.5 C 1865.83,327.141 1866.5,336.141 1866.5,345.5C 1872.74,371.218 1862.74,385.052 1836.5,387C 1809.37,388.531 1798.87,376.031 1805,349.5C 1809.35,338.83 1817.18,331.996 1828.5,329C 1840.53,325.164 1852.53,321.664 1864.5,318.5 Z"/></g>
</svg>
